<svg width="231" height="231" viewBox="0 0 231 231" fill="none" xmlns="http://www.w3.org/2000/svg">
<path d="M115.5 0L117.855 67.5618C118.385 82.7932 136.587 90.3325 147.733 79.9377L197.171 33.8291L151.062 83.2675C140.667 94.413 148.207 112.615 163.438 113.146L231 115.5L163.438 117.855C148.207 118.385 140.667 136.587 151.062 147.733L197.171 197.171L147.733 151.062C136.587 140.667 118.385 148.207 117.855 163.438L115.5 231L113.146 163.438C112.615 148.207 94.413 140.667 83.2675 151.062L33.8291 197.171L79.9377 147.733C90.3325 136.587 82.7932 118.385 67.5618 117.855L0 115.5L67.5618 113.146C82.7932 112.615 90.3325 94.413 79.9377 83.2675L33.8291 33.8291L83.2675 79.9377C94.413 90.3325 112.615 82.7932 113.146 67.5618L115.5 0Z" fill="#F5EBF8"/>
</svg>
